<svg xmlns="http://www.w3.org/2000/svg" width="32" height="32" viewBox="0 0 32 32" fill="none">
  <defs>
    <linearGradient id="ts-gradient" x1="0%" y1="0%" x2="100%" y2="100%">
      <stop offset="0%" style="stop-color:#3178C6;stop-opacity:1" />
      <stop offset="100%" style="stop-color:#235A97;stop-opacity:1" />
    </linearGradient>
  </defs>
  <!-- Official TypeScript blue square -->
  <rect x="2" y="2" width="28" height="28" rx="1" fill="url(#ts-gradient)"/>
  <!-- T letter -->
  <path d="M9 10h8.5v1.5h-3v8h-2.5v-8h-3V10z" fill="#fff"/>
  <!-- S letter -->
  <path d="M18.5 14.5c0-.4.1-.7.3-1 .2-.3.5-.5.9-.6.4-.1.8-.2 1.3-.2s.9.1 1.3.2c.4.1.7.3.9.6.2.3.3.6.3 1v.5h-1.8v-.3c0-.2-.1-.3-.2-.4-.1-.1-.3-.1-.5-.1s-.4 0-.5.1c-.1.1-.2.2-.2.4 0 .1 0 .2.1.3.1.1.2.2.3.2.1.1.3.1.5.2l.9.3c.3.1.6.2.8.3.2.1.4.3.6.5.1.2.2.5.2.8 0 .4-.1.7-.3 1-.2.3-.5.5-.9.6-.4.1-.8.2-1.3.2s-.9-.1-1.3-.2c-.4-.1-.7-.3-.9-.6-.2-.3-.3-.6-.3-1v-.6h1.8v.4c0 .2.1.3.2.4.1.1.3.1.5.1s.4 0 .5-.1c.1-.1.2-.2.2-.4 0-.1 0-.2-.1-.3-.1-.1-.2-.2-.3-.2-.1-.1-.3-.1-.5-.2l-.9-.3c-.3-.1-.6-.2-.8-.3-.2-.1-.4-.3-.6-.5-.1-.2-.2-.5-.2-.8z" fill="#fff"/>
</svg>
